<svg xmlns="http://www.w3.org/2000/svg" width="128" height="28" viewBox="0 0 128 28" fill="none"><path d="M0.53825 23.6259V5.03811L4.91185 0.66451H17.7984L22.172 5.03811V23.6259L17.7984 27.9995H4.91185L0.53825 23.6259ZM16.0021 24.7193L18.4231 22.2982V6.36581L16.0021 3.94471H6.70815L4.28705 6.36581V22.2982L6.70815 24.7193H16.0021ZM27.508 23.6259V5.03811L31.8816 0.66451H44.1433L48.3607 4.88191V7.96686H44.6119V6.20961L42.347 3.94471H33.6779L31.2568 6.36581V22.2982L33.6779 24.7193H42.347L44.6119 22.4544V20.6972H48.3607V23.7821L44.1433 27.9995H31.8816L27.508 23.6259ZM53.1141 0.66451H71.4676V3.94471H56.8629V12.6529H70.3352V15.894H56.8629V24.7193H71.4676V27.9995H53.1141V0.66451ZM76.423 0.66451H80.1718V24.7584H93.9955V27.9995H76.423V0.66451ZM98.1729 0.66451H101.922V27.9995H98.1729V0.66451ZM107.659 24.2117V21.2439H111.368V23.0011L113.048 24.7193H121.99L123.708 22.9621V17.3389L121.99 15.6597H111.525L107.737 11.8328V4.45236L111.525 0.66451H123.318L127.106 4.45236V7.45921H123.435V5.66291L121.717 3.94471H113.165L111.446 5.66291V10.6613L113.165 12.3795H123.63L127.418 16.1674V24.1336L123.552 27.9995H111.446L107.659 24.2117Z" fill="#FF3938"></path></svg>